<svg xmlns="http://www.w3.org/2000/svg" xmlns:xlink="http://www.w3.org/1999/xlink" viewBox="0 0 604.99 359.29"><defs><style>.cls-1{fill:none;}.cls-2{fill:#00b5ef;}.cls-3{fill:#007cba;}.cls-4{clip-path:url(#clip-path);}.cls-5{fill:url(#linear-gradient);}.cls-6{fill:#fad75f;}.cls-7{clip-path:url(#clip-path-2);}.cls-8{fill:url(#linear-gradient-2);}.cls-9{fill:#231f20;}.cls-10{clip-path:url(#clip-path-3);}.cls-11{fill:url(#linear-gradient-3);}.cls-12{clip-path:url(#clip-path-4);}.cls-13{fill:url(#linear-gradient-4);}.cls-14{clip-path:url(#clip-path-5);}.cls-15{fill:url(#linear-gradient-5);}.cls-16{clip-path:url(#clip-path-6);}.cls-17{fill:url(#linear-gradient-6);}.cls-18{clip-path:url(#clip-path-7);}.cls-19{fill:url(#linear-gradient-7);}</style><clipPath id="clip-path"><path class="cls-1" d="M375.08,246.26h0M243.28,80.62c-7.81,7-11.13,17.06-12.46,27.13-1.65,12.59-2.76,25.23-3.42,37.9a533.41,533.41,0,0,0,.68,67.26c1.29,17.17,1.21,39.17,14.27,52.12,14.66,14.54,35.46,9.45,46.28-6.54,2.66-3.93,5.14-8,7.71-12L322.49,206q5.88-9.12,11.75-18.24,2.44-3.78,4.88-7.56,15.35-23.8,30.7-47.62c1.2-1.86,2.37-3.75,3.61-5.59.23-.34.42-.7.66-1l-.66.72c.13-.15.5-.58,1.3-1.48l.46-.49a1.63,1.63,0,0,0,.32,0h.05c.13.25,1.07.64.56-.08l-.06-.08h.12l.9,1.07.05.07.28.38c1.24,1.68,1.38,2.3,2,5.15,1.74,7.51,2.15,15,2.84,23.85a370.82,370.82,0,0,1-1,67.38,151.73,151.73,0,0,1-2.18,16.33c-.14.68-1.48,4.6-1.23,4.19-1.05,2.16-.85,1.82-1.49,2.34-.14.11-.31.26-.55.49l-.12.08c-.18.13-.36.26-.55.38l-.07,0h0l0,0-.12-.05h0a.08.08,0,0,1,0,0h0l0,0,0,0h0l0,0-.1.07c-10.32,7.14-19.37,9.15-26,9.3,1.88,1,3.82,2,5.8,2.85a44.76,44.76,0,0,0,6.09,2.12,33.29,33.29,0,0,0,6.35,1.06,24.7,24.7,0,0,0,6.42-.46,20.39,20.39,0,0,0,10.86-6.55,28.09,28.09,0,0,0,5.93-11.32c2.52-8.25,3.68-16.83,4.49-25.39s1.2-17.18,1.27-25.79,0-17.22-.33-25.82-.76-17.2-1.37-25.79q-.46-6.45-1-12.88a35.39,35.39,0,0,0-.85-6.36,16.27,16.27,0,0,0-2.84-5.67,14.79,14.79,0,0,0-11-5.71,17.15,17.15,0,0,0-11.66,4.38L310,203.4l-28.68,44.49-3.58,5.56a17.93,17.93,0,0,1-4.55,4.88,15.29,15.29,0,0,1-6.14,2.6,15.7,15.7,0,0,1-6.65-.29,22,22,0,0,1-11.11-7.07,23.65,23.65,0,0,1-5.4-12c-1.67-17.59-2.83-35.19-3.61-52.82s-1.09-35.29-.26-52.93a195.16,195.16,0,0,1,2.8-26.31,58.43,58.43,0,0,1,3.7-12.69,18,18,0,0,1,3.65-5.5,21.51,21.51,0,0,1,5.36-3.86,19.21,19.21,0,0,1,6.35-1.77,24.69,24.69,0,0,1,6.59.42,35.84,35.84,0,0,1,6.3,2,52.67,52.67,0,0,1,5.88,3,85.21,85.21,0,0,1,16.66,13.51c.77.79,1.53,1.59,2.27,2.4l1.11,1.23q-4.19-7.83-8.36-15.65c-.47-.87-.93-1.74-1.39-2.61-.27-.46-.54-.91-.82-1.36-6.3-10.09-16.52-16-27-16a29.48,29.48,0,0,0-19.85,7.93"/></clipPath><linearGradient id="linear-gradient" x1="-124.51" y1="499.19" x2="-123.51" y2="499.19" gradientTransform="matrix(0, 169.65, 169.65, 0, -84374.99, 21219.09)" gradientUnits="userSpaceOnUse"><stop offset="0" stop-color="#00afe0"/><stop offset="0.02" stop-color="#00afe0"/><stop offset="0.42" stop-color="#007dc4"/><stop offset="0.98" stop-color="#00b5ef"/><stop offset="1" stop-color="#00b5ef"/></linearGradient><clipPath id="clip-path-2"><path class="cls-1" d="M333.65,197.47q3.64,6.5,7.21,13l7.08,13.11,6.95,13.17q3.45,6.58,6.81,13.24a59,59,0,0,0,12.08-5.23c-.16-.17-.28-.28-.28-.24-2.14-3.25-3.75-7-5.57-10.46Q361.21,221.52,354.5,209l-12.81-24Z"/></clipPath><linearGradient id="linear-gradient-2" x1="-124.51" y1="499.12" x2="-123.51" y2="499.12" gradientTransform="matrix(48.72, 0, 0, -48.72, 6390.86, 24532.69)" gradientUnits="userSpaceOnUse"><stop offset="0" stop-color="#007dc4"/><stop offset="0.5" stop-color="#00b5ef"/><stop offset="0.97" stop-color="#007cba"/><stop offset="1" stop-color="#007cba"/></linearGradient><clipPath id="clip-path-3"><path class="cls-1" d="M325.06,210.79l21.76,40.73A35.82,35.82,0,0,0,361.7,250q-3.65-6.5-7.22-13l-7.07-13.1-7-13.17q-3.45-6.6-6.81-13.25Z"/></clipPath><linearGradient id="linear-gradient-3" x1="-124.51" y1="499.12" x2="-123.51" y2="499.12" gradientTransform="matrix(48.72, 0, 0, -48.72, 6390.86, 24539.8)" xlink:href="#linear-gradient-2"/><clipPath id="clip-path-4"><path class="cls-1" d="M291.89,117.46l7.61,14.3L307,146.13q3.72,7.2,7.34,14.44l7.85-12.11q-9.82-18.37-19.63-36.75s-1.34-1-3.64-2.32a61.24,61.24,0,0,0-9.31-4.45,47.77,47.77,0,0,0-5.46-1.71q3.92,7.08,7.75,14.23"/></clipPath><linearGradient id="linear-gradient-4" x1="-124.51" y1="499.12" x2="-123.51" y2="499.12" gradientTransform="matrix(54.66, 0, 0, -54.66, 7073.43, 27413.87)" xlink:href="#linear-gradient-2"/><clipPath id="clip-path-5"><path class="cls-1" d="M267.55,103.08h0c.08.16.16.3.27.49l37.72,70.62,8.82-13.63q-3.91-7.08-7.75-14.23L299,132l-7.48-14.37q-3.72-7.2-7.35-14.44a37.12,37.12,0,0,0-9-1.18,27.49,27.49,0,0,0-7.59,1"/></clipPath><linearGradient id="linear-gradient-5" x1="-124.51" y1="499.12" x2="-123.51" y2="499.12" gradientTransform="matrix(54.66, 0, 0, -54.66, 7073.43, 27420.09)" xlink:href="#linear-gradient-2"/><clipPath id="clip-path-6"><path class="cls-1" d="M264.07,246.39l0,0,0,0M261.92,85.76a19.3,19.3,0,0,0-6.32,1.78,21.52,21.52,0,0,0-5.32,3.85,17.89,17.89,0,0,0-3.61,5.47A58,58,0,0,0,243,109.53a196.42,196.42,0,0,0-2.75,26.29c-.8,17.63-.41,35.28.36,52.9s2,35.24,3.71,52.78a23.29,23.29,0,0,0,5.33,11.8,21.6,21.6,0,0,0,10.89,6.9,15,15,0,0,0,6.46.27,14.73,14.73,0,0,0,5.94-2.53c3.63-2.52,5.5-6.71,8-10.32l28.6-44.54,57.37-89v0h0a17.44,17.44,0,0,1,11.95-4.47,15.12,15.12,0,0,1,11.23,5.86,16.55,16.55,0,0,1,2.89,5.8,36.67,36.67,0,0,1,.85,6.42q.56,6.44,1,12.88.9,12.88,1.33,25.8c.3,8.61.41,17.22.28,25.84s-.51,17.22-1.32,25.8-2,17.15-4.54,25.39a28.18,28.18,0,0,1-6,11.35,20.3,20.3,0,0,1-10.9,6.54,24.35,24.35,0,0,1-6.43.46,32.66,32.66,0,0,1-6.36-1.08,43.4,43.4,0,0,1-6.08-2.14c-2-.85-3.92-1.82-5.8-2.85,5.08,9.36,13.55,16.74,24.63,17.37,9.61.55,18.4-4.31,24.18-11.78,7.24-9.36,8.14-20.73,9.54-32.09a373.54,373.54,0,0,0,2.09-68.92c-.62-9.85-1.71-19.64-3.06-29.41-1.32-9.55-4.37-18.85-11.72-25.55-14.41-13.12-33.63-7.85-43.9,7.25-2.78,4.09-5.36,8.32-8,12.47l-16.65,25.83-1.46,2.26L308,178.9c-.78,1.21-1.56,2.41-2.33,3.62l-36.31,56.3c-1.16,1.81-2.29,3.64-3.49,5.42l-.35.54c0-.05-1.17,1.27-1.63,1.81a1.29,1.29,0,0,1,.15-.2,4.29,4.29,0,0,1-.42.38c-.17.08-.36.17-.55.24h-.38l-.05,0-.1,0h0l-.63-.34c-.35-.31-.69-.65-1-1-.08-.15-.7-1-.8-1.12-1.43-2.42-1.39-2.62-2.05-5.47-.4-1.73-.65-3.49-.93-5.24l-.3-2a.34.34,0,0,0,0,.1c0-.08,0-.17,0-.28s0,0,0,0,0-.18,0-.28,0-.29-.06-.46c-.58-4.55-1-9.12-1.43-13.69A524,524,0,0,1,254,151.15c.52-12.64,1.48-25.26,3-37.82.38-3.25,1.59-8.55,2.26-9.82a24.11,24.11,0,0,1,1.4-2.34l.05-.06a1.86,1.86,0,0,0-.15.26,4.48,4.48,0,0,0,.41-.49c.1-.13.55-.54.9-.86l1.18-.74c.13,0,.22-.06.23,0l.28-.07.49,0,.06,0v0c-.35,0-.44.1-.4.19l.46-.14.14,0,.09,0c.94,0,.7,0,.21,0,.47-.13,1-.26,1.62-.38,4.86-1,13.83-1.48,25,3.85a60.71,60.71,0,0,1,9.49,5.68l-1.11-1.23c-.74-.81-1.5-1.61-2.27-2.4a86.1,86.1,0,0,0-16.68-13.47,54.33,54.33,0,0,0-5.88-3,36.76,36.76,0,0,0-6.29-2,25.77,25.77,0,0,0-4.87-.48c-.56,0-1.13,0-1.7.06"/></clipPath><linearGradient id="linear-gradient-6" x1="-124.51" y1="499.11" x2="-123.51" y2="499.11" gradientTransform="matrix(0, -170.4, -170.4, 0, 85373.7, -20956.37)" xlink:href="#linear-gradient-2"/><clipPath id="clip-path-7"><path class="cls-1" d="M256.82,231.75v0m0-.22s0,0,0,0,0,.09,0,.13l0-.25v.08m0-.08s0,0,0,0a.43.43,0,0,0,0,0"/></clipPath><linearGradient id="linear-gradient-7" x1="-124.51" y1="499.12" x2="-123.51" y2="499.12" gradientTransform="matrix(0.01, -170.4, -170.4, -0.01, 85308.7, -20888.2)" xlink:href="#linear-gradient-2"/></defs><title>logo_nexus</title><g id="Layer_2" data-name="Layer 2"><g id="Layer_1-2" data-name="Layer 1"><path class="cls-2" d="M299.5,131.76,307,146.13q3.72,7.2,7.34,14.44-3.91-7.08-7.75-14.23L299,132l-7.48-14.37q-3.72-7.2-7.35-14.44,3.92,7.08,7.75,14.23Z"/><path class="cls-2" d="M347.94,223.61l6.95,13.17q3.45,6.58,6.81,13.24-3.65-6.5-7.22-13l-7.07-13.1-7-13.17q-3.45-6.6-6.81-13.25,3.64,6.5,7.21,13Z"/><path class="cls-2" d="M274.78,88.17a36.76,36.76,0,0,0-6.29-2,24.59,24.59,0,0,0-6.57-.42,19.3,19.3,0,0,0-6.32,1.78,21.52,21.52,0,0,0-5.32,3.85,17.89,17.89,0,0,0-3.61,5.47A58,58,0,0,0,243,109.53a196.42,196.42,0,0,0-2.75,26.29c-.8,17.63-.41,35.28.36,52.9s2,35.24,3.71,52.78a23.29,23.29,0,0,0,5.33,11.8,21.6,21.6,0,0,0,10.89,6.9,15,15,0,0,0,6.46.27,14.73,14.73,0,0,0,5.94-2.53c3.63-2.52,5.5-6.71,8-10.32l28.6-44.54,57.37-89v0h0a17.44,17.44,0,0,1,11.95-4.47,15.12,15.12,0,0,1,11.23,5.86,16.55,16.55,0,0,1,2.89,5.8,36.67,36.67,0,0,1,.85,6.42q.56,6.44,1,12.88.9,12.88,1.33,25.8c.3,8.61.41,17.22.28,25.84s-.51,17.22-1.32,25.8-2,17.15-4.54,25.39a28.18,28.18,0,0,1-6,11.35,20.3,20.3,0,0,1-10.9,6.54,24.35,24.35,0,0,1-6.43.46,32.66,32.66,0,0,1-6.36-1.08,43.4,43.4,0,0,1-6.08-2.14,44.76,44.76,0,0,0,6.09,2.12,33.29,33.29,0,0,0,6.35,1.06,24.7,24.7,0,0,0,6.42-.46,20.39,20.39,0,0,0,10.86-6.55,28.09,28.09,0,0,0,5.93-11.32c2.52-8.25,3.68-16.83,4.49-25.39s1.2-17.18,1.27-25.79,0-17.22-.33-25.82-.76-17.2-1.37-25.79q-.46-6.45-1-12.88a35.39,35.39,0,0,0-.85-6.36,16.27,16.27,0,0,0-2.84-5.67,14.79,14.79,0,0,0-11-5.71,17.15,17.15,0,0,0-11.66,4.38v0l0,0h0L310,203.4l-28.68,44.49-3.58,5.56a17.93,17.93,0,0,1-4.55,4.88,15.29,15.29,0,0,1-6.14,2.6,15.7,15.7,0,0,1-6.65-.29,22,22,0,0,1-11.11-7.07,23.65,23.65,0,0,1-5.4-12c-1.67-17.59-2.83-35.19-3.61-52.82s-1.09-35.29-.26-52.93a195.16,195.16,0,0,1,2.8-26.31,58.43,58.43,0,0,1,3.7-12.69,18,18,0,0,1,3.65-5.5,21.51,21.51,0,0,1,5.36-3.86,19.21,19.21,0,0,1,6.35-1.77,24.69,24.69,0,0,1,6.59.42,35.84,35.84,0,0,1,6.3,2,52.67,52.67,0,0,1,5.88,3,85.21,85.21,0,0,1,16.66,13.51,86.1,86.1,0,0,0-16.68-13.47,54.33,54.33,0,0,0-5.88-3"/><path class="cls-3" d="M576.38,182.37c17.23,3.78,29.53,19.53,28.55,36.26-1.15,19.19-18.54,30.35-34.13,32.64a65.56,65.56,0,0,1-8,.49c-16.08,0-32-6.72-41.83-18.37a9.84,9.84,0,0,1,1.14-13.78,9.65,9.65,0,0,1,13.62,1.15c7.22,8.37,20.18,13,32.32,11.16,8-1.15,16.89-6.07,17.39-14.44.49-7.38-5.25-14.27-13.29-16.08a56.72,56.72,0,0,0-10.83-1.15c-8.53-.49-18-1-26.9-7.05-12-8.2-17.88-23.13-14.27-36.25,3.93-14.27,17.06-25.26,32.64-27.56a58.17,58.17,0,0,1,42.82,11.15A9.81,9.81,0,0,1,583.44,156c-7.39-5.9-18.05-8.69-28.06-7.21-7.71,1.14-14.6,6.56-16.4,13.45-1.64,5.74,2,11.81,6.56,14.93,4.27,3,10,3.28,16.73,3.6a87.72,87.72,0,0,1,14.11,1.64"/><path class="cls-3" d="M512.09,137.26v71.2c0,28-24,43.3-46.59,43.3s-46.43-15.25-46.43-43.3v-71.2a9.94,9.94,0,0,1,10-10,10.07,10.07,0,0,1,10.17,10v71.2c0,15.09,13.29,23,26.25,23,13.12,0,26.41-7.87,26.41-23v-71.2a10.07,10.07,0,0,1,10.17-10,9.94,9.94,0,0,1,10,10"/><g class="cls-4"><rect class="cls-5" x="187.47" y="64.46" width="247.69" height="223.34" transform="translate(51.6 422.07) rotate(-72.94)"/></g><path class="cls-6" d="M375,246.15l0,0a1.31,1.31,0,0,1-.26-.11.91.91,0,0,1,.22.06,0,0,0,0,0,0,0"/><g class="cls-7"><rect class="cls-8" x="333.65" y="184.99" width="40.13" height="65.03"/></g><path class="cls-9" d="M367.19,114.35l0,0v0h0"/><g class="cls-10"><rect class="cls-11" x="325.06" y="197.47" width="36.64" height="54.73"/></g><g class="cls-12"><rect class="cls-13" x="284.14" y="103.23" width="38.04" height="57.34"/></g><g class="cls-14"><rect class="cls-15" x="267.52" y="102.05" width="46.81" height="72.15"/></g><g class="cls-16"><rect class="cls-17" x="198.24" y="52.51" width="253.9" height="254.27" transform="translate(-33.37 276.88) rotate(-44.09)"/></g><path class="cls-6" d="M264.18,246.26l-.07.08.07-.08"/><g class="cls-18"><rect class="cls-19" x="256.66" y="231.43" width="0.28" height="0.29" transform="translate(-88.77 243.95) rotate(-44.09)"/></g><path class="cls-3" d="M213.47,159.46c2,3.61,8,14.59,7.46,23.07v.34c0,1.35-.88,3.65-1.62,5.59-.59,1.46-2.87,6.22-7.61,6.22H127.31l.19,1.79A42,42,0,0,0,134.43,216a37.9,37.9,0,0,0,31.12,16.71c9.07,0,22.46-3.66,30.43-11.69a9.73,9.73,0,0,1,14.18.1l.16.17a9.91,9.91,0,0,1,2.83,7.08,10.8,10.8,0,0,1-3.1,7.61c-16,16.15-38.1,17.4-44.5,17.4-32.22,0-58.43-27.56-58.43-61.45s26.21-61.46,58.43-61.46a47.85,47.85,0,0,1,10.23,1c15.53,3.11,29.29,13.35,37.69,28m-13.15,19.35-4.08-8.13a33.35,33.35,0,0,0-30.69-19c-13.34,0-25.18,6.76-32.48,18.54l-4.68,8.57Z"/><path class="cls-3" d="M8.69,124.54a.6.6,0,0,1,.5-.17h2a.6.6,0,0,0,.5.17h.49a.51.51,0,0,0,.33.16l.65.16a.59.59,0,0,0,.33.17c.17,0,.33.16.49.16s.33.17.5.17l.32.32c.17,0,.33.17.5.17.16.16.32.16.32.33.17,0,.33.16.5.32.16,0,.16.17.32.17l.33.33.33.32.33.33c.16.17.33.33.33.49.16,0,.16,0,.16.17l62.66,81.36V134.38a9.94,9.94,0,0,1,10-10,10.05,10.05,0,0,1,10,10V238.87a.17.17,0,0,1-.17.17v1.47a.63.63,0,0,0-.16.5.59.59,0,0,1-.17.49V242a.51.51,0,0,0-.16.33l-.33.49a.6.6,0,0,1-.16.49c0,.17-.17.33-.17.5l-.32.49a.55.55,0,0,0-.17.33c-.16.16-.33.16-.33.32-.16.17-.16.33-.32.33,0,.17-.17.33-.33.49-.17,0-.17.17-.33.33-.16,0-.16.17-.33.33a.35.35,0,0,0-.33.33h-.16a.16.16,0,0,1-.16.16,9,9,0,0,1-1.32.82c-.49.17-.82.49-1.31.66h-.16a4.94,4.94,0,0,1-1.48.33h-.33a3.25,3.25,0,0,1-1.31.16H89.4l-.16-.16h-.82c-.17-.17-.17-.17-.33-.17-.33,0-.49-.16-.82-.16a.55.55,0,0,0-.33-.17c-.16,0-.33-.16-.49-.32a.59.59,0,0,1-.49-.17c-.17,0-.33-.16-.49-.33-.17,0-.33,0-.33-.16-.33-.16-.49-.16-.66-.33,0-.16-.16-.16-.33-.33s-.49-.32-.65-.65a.17.17,0,0,1-.17-.17c-.32-.16-.49-.49-.65-.65v-.17L20,163.58v75.29a10,10,0,1,1-20,0V133.56c.16,0,.16-.17.16-.33v-.49a.58.58,0,0,1,.17-.49v-.5a.6.6,0,0,0,.16-.49.59.59,0,0,1,.17-.33c0-.16.16-.32.16-.49l.33-.49a.6.6,0,0,1,.16-.49c0-.17.17-.33.33-.5a.5.5,0,0,1,.16-.32l.33-.33A.55.55,0,0,1,2.3,128l.49-.49s.16-.17.33-.33l.32-.33s.17-.16.33-.33h.17a.16.16,0,0,1,.16-.16c.16-.16.33-.33.49-.33.17-.16.33-.16.33-.33.17,0,.33-.16.49-.16a.63.63,0,0,1,.5-.16L6.4,125c.16,0,.16,0,.33-.17a.62.62,0,0,0,.49-.16h.49a.61.61,0,0,1,.49-.16Z"/><path class="cls-2" d="M17.49,294.94H16.14a.74.74,0,0,1-.55-.26L2.47,277.45v16.86q0,.63-.66.63H.63a.56.56,0,0,1-.63-.63V274.25a.7.7,0,0,1,.17-.47.63.63,0,0,1,.46-.19H2.22a.62.62,0,0,1,.54.29l12.92,16.8V274.14a.59.59,0,0,1,.63-.55h1.18a.76.76,0,0,1,.48.18.55.55,0,0,1,.21.46v20.08q0,.63-.69.63"/><path class="cls-2" d="M28.48,295.28a6.28,6.28,0,0,1-2.65-.57,7,7,0,0,1-2.15-1.57,7.3,7.3,0,0,1-1.46-2.35,8.06,8.06,0,0,1,0-5.75,7.57,7.57,0,0,1,1.46-2.36,6.69,6.69,0,0,1,2.15-1.58,6.28,6.28,0,0,1,2.65-.57,5.86,5.86,0,0,1,2.49.53,6.43,6.43,0,0,1,2,1.45,7.06,7.06,0,0,1,1.4,2.16,6.87,6.87,0,0,1,.51,2.65v.34c0,.58-.18.94-.54,1.09a3.33,3.33,0,0,1-1.33.23H24.22a4.55,4.55,0,0,0,1.46,2.79,4.07,4.07,0,0,0,2.8,1.07,5.09,5.09,0,0,0,1.74-.32,5.16,5.16,0,0,0,1.57-.89.7.7,0,0,1,.52-.2.36.36,0,0,1,.31.17l.81,1.21a.38.38,0,0,1,.11.26.59.59,0,0,1-.18.35,1.9,1.9,0,0,1-.31.23A11.82,11.82,0,0,1,31,294.8a6.18,6.18,0,0,1-2.47.48m-4.14-8.43h8.14a5.41,5.41,0,0,0-.52-1.51A5,5,0,0,0,31,284.1a4.19,4.19,0,0,0-1.22-.83,3.42,3.42,0,0,0-1.4-.3,3.37,3.37,0,0,0-1.41.3,4.05,4.05,0,0,0-1.19.83,5.26,5.26,0,0,0-.92,1.24,5.5,5.5,0,0,0-.56,1.51"/><path class="cls-2" d="M41,295.17h-.22l-.24,0a9.85,9.85,0,0,1-1.35-.1,2.66,2.66,0,0,1-1.15-.46,2.57,2.57,0,0,1-.8-1.05,4.71,4.71,0,0,1-.3-1.84v-8.64H35.18a1,1,0,0,1-.53-.12.61.61,0,0,1-.19-.51v-1.06a.55.55,0,0,1,.19-.49,1,1,0,0,1,.53-.12h1.73v-4.05a.55.55,0,0,1,.49-.58l1.49-.2a.45.45,0,0,1,.45.23,1.24,1.24,0,0,1,.1.52v4.08h2.13c.42,0,.63.22.63.67v.94q0,.69-.63.69H39.44v7.71a6.68,6.68,0,0,0,.07,1.13,1.2,1.2,0,0,0,.26.6.78.78,0,0,0,.48.25,6.73,6.73,0,0,0,.72,0,.63.63,0,0,1,.71.72v.92c0,.42-.24.65-.71.69"/><path class="cls-2" d="M48.62,281.39l1,2.43q.48,1.28,1,2.55l1,2.47c.31.81.62,1.54.9,2.22.39-.94.8-2,1.24-3.05s.88-2.22,1.32-3.37l1.3-3.28a.77.77,0,0,1,.78-.55h1.2c.44,0,.66.17.66.49,0,0,0,.1,0,.19a.37.37,0,0,1-.06.16c-.19.48-.39,1-.58,1.42s-.39.94-.6,1.4c.27.71.54,1.41.82,2.11s.55,1.38.82,2l1,2.45c.28-.68.59-1.41.9-2.22s.64-1.63,1-2.47.67-1.7,1-2.56.65-1.68,1-2.45a.91.91,0,0,1,.29-.39.8.8,0,0,1,.49-.16h1.21c.46,0,.69.17.69.49a.76.76,0,0,1,0,.19.66.66,0,0,0,0,.16L61.5,294.39s0,.05-.15.25a.61.61,0,0,1-.59.3h-.84a.65.65,0,0,1-.53-.2,1.48,1.48,0,0,1-.22-.35l-2.79-6.73-2.76,6.73a1.28,1.28,0,0,0-.16.29c-.06.15-.23.23-.5.23l-.06,0H52a.64.64,0,0,1-.53-.2,1.48,1.48,0,0,1-.22-.35L46,281.65s0,0,0-.1a1.27,1.27,0,0,1,0-.28c0-.3.21-.46.63-.46h1.21a.71.71,0,0,1,.49.18,1.38,1.38,0,0,1,.32.4"/><path class="cls-2" d="M67.29,287.92a7.33,7.33,0,0,1,.57-2.88,7.79,7.79,0,0,1,1.57-2.36,7.1,7.1,0,0,1,2.35-1.58,7.43,7.43,0,0,1,8.11,1.58A7.47,7.47,0,0,1,81.47,285a7.44,7.44,0,0,1,0,5.76,7.16,7.16,0,0,1-1.58,2.34,7.67,7.67,0,0,1-2.36,1.57,7.43,7.43,0,0,1-8.1-1.57,7.46,7.46,0,0,1-1.57-2.34,7.33,7.33,0,0,1-.57-2.88m2.33,0a4.84,4.84,0,0,0,.4,2,5.42,5.42,0,0,0,1.08,1.61,5,5,0,0,0,1.6,1.09,4.76,4.76,0,0,0,2,.4,4.84,4.84,0,0,0,2-.4,5.14,5.14,0,0,0,2.7-2.7,5,5,0,0,0,0-3.92,5.43,5.43,0,0,0-1.09-1.62,5.15,5.15,0,0,0-1.61-1.11,4.84,4.84,0,0,0-2-.4,4.76,4.76,0,0,0-2,.4,4.89,4.89,0,0,0-1.6,1.11A5.6,5.6,0,0,0,70,286a4.84,4.84,0,0,0-.4,2"/><path class="cls-2" d="M88.23,281.44l.14,1.05a4.79,4.79,0,0,1,1.15-1.28,3.61,3.61,0,0,1,3.07-.48,6.16,6.16,0,0,1,.86.32,3,3,0,0,1,.63.39c.17.13.25.24.25.34a.94.94,0,0,1-.06.23l-.72,1.34c-.11.19-.24.28-.37.28a.42.42,0,0,1-.22-.05l-.13-.09a2.69,2.69,0,0,0-.72-.3,3.57,3.57,0,0,0-.83-.16,2.09,2.09,0,0,0-1.18.35,3.18,3.18,0,0,0-.92.87,4.32,4.32,0,0,0-.59,1.22,4.47,4.47,0,0,0-.22,1.34v7.49a.56.56,0,0,1-.63.64H86.56q-.66,0-.66-.63V281.45a.56.56,0,0,1,.19-.46.6.6,0,0,1,.44-.18h1A.59.59,0,0,1,88,281a.77.77,0,0,1,.19.44"/><path class="cls-2" d="M96.86,294.31V274.23a.65.65,0,0,1,.16-.45.59.59,0,0,1,.47-.19h1.18a.67.67,0,0,1,.46.18.54.54,0,0,1,.2.46v12.19l5-5.2a3.8,3.8,0,0,1,.33-.29.75.75,0,0,1,.45-.12h2c.29,0,.43.11.43.32a.47.47,0,0,1,0,.24,2.33,2.33,0,0,1-.19.25l-4.4,4.49,6.62,8.05a.73.73,0,0,1,.26.46c0,.21-.17.32-.49.32h-2a.83.83,0,0,1-.41-.12,1,1,0,0,1-.39-.34l-5.32-6.62-1.85,1.9v4.55q0,.63-.66.63H97.49a.56.56,0,0,1-.63-.63"/><path class="cls-2" d="M111.33,276.86a1.73,1.73,0,0,1,.53-1.27,1.81,1.81,0,0,1,3.1,1.27,1.71,1.71,0,0,1-.52,1.25,1.86,1.86,0,0,1-2.58,0,1.69,1.69,0,0,1-.53-1.25m3,4.59V294.3a.56.56,0,0,1-.63.64h-1.21a.56.56,0,0,1-.63-.64V281.45a.56.56,0,0,1,.63-.64h1.21a.56.56,0,0,1,.63.64"/><path class="cls-2" d="M121.43,281.48l.08,1.29a5.17,5.17,0,0,1,.9-.79,7.13,7.13,0,0,1,1.21-.71,9.12,9.12,0,0,1,1.38-.52,5.33,5.33,0,0,1,1.36-.2,5.15,5.15,0,0,1,2.25.48,5.23,5.23,0,0,1,1.72,1.28,5.63,5.63,0,0,1,1.08,1.9,7.21,7.21,0,0,1,.37,2.36v7.65a.66.66,0,0,1-.2.53.69.69,0,0,1-.49.19h-1.2a.62.62,0,0,1-.52-.17.93.93,0,0,1-.12-.52v-7.7a3.91,3.91,0,0,0-.24-1.37,3.39,3.39,0,0,0-.71-1.13,3.48,3.48,0,0,0-1.1-.76,3.7,3.7,0,0,0-1.49-.29,4.46,4.46,0,0,0-1.46.26,5.27,5.27,0,0,0-1.36.69,4.39,4.39,0,0,0-1,1,1.93,1.93,0,0,0-.39,1.13v8.24a.56.56,0,0,1-.63.64H119.7c-.44,0-.66-.21-.66-.64V281.48a.59.59,0,0,1,.19-.48.68.68,0,0,1,.44-.16h1.1a.61.61,0,0,1,.66.64"/><path class="cls-2" d="M145.85,294.54v-1.73a9.15,9.15,0,0,1-.81.88,5.77,5.77,0,0,1-1,.79,5.55,5.55,0,0,1-1.18.56,4,4,0,0,1-1.28.22,6.38,6.38,0,0,1-2.7-.58,6.24,6.24,0,0,1-2.11-1.57,7.44,7.44,0,0,1-1.39-2.33,8.15,8.15,0,0,1-.5-2.86,7.87,7.87,0,0,1,.52-2.88,7.26,7.26,0,0,1,1.42-2.34,6.85,6.85,0,0,1,2.13-1.57,6.17,6.17,0,0,1,2.63-.58,4.88,4.88,0,0,1,2.55.65,5.76,5.76,0,0,1,1.74,1.57v-1.18a.81.81,0,0,1,.17-.52.8.8,0,0,1,.61-.2h.92a.91.91,0,0,1,.57.19.59.59,0,0,1,.26.53v12a8.81,8.81,0,0,1-.53,3.17,6.26,6.26,0,0,1-1.46,2.28,6,6,0,0,1-2.21,1.35,8.2,8.2,0,0,1-2.74.45,8,8,0,0,1-2.17-.28,6.19,6.19,0,0,1-1.79-.82c-.23-.13-.35-.26-.35-.37a.38.38,0,0,1,.06-.17.69.69,0,0,1,.09-.15l.8-1.38a.51.51,0,0,1,.4-.17.65.65,0,0,1,.32.11,5.12,5.12,0,0,0,1.24.61,4.52,4.52,0,0,0,1.37.23,4.68,4.68,0,0,0,1.59-.28,4.88,4.88,0,0,0,1.42-.77,4.32,4.32,0,0,0,1-1.22,3.29,3.29,0,0,0,.4-1.64m-8.52-6.64a5.55,5.55,0,0,0,.33,1.93,4.9,4.9,0,0,0,.92,1.55,4.41,4.41,0,0,0,1.36,1,3.64,3.64,0,0,0,3.24,0,4.29,4.29,0,0,0,1.36-1,5.19,5.19,0,0,0,1-1.53,4.88,4.88,0,0,0,.36-1.88,5.52,5.52,0,0,0-.33-1.91,5.22,5.22,0,0,0-.92-1.59,4.45,4.45,0,0,0-1.36-1.09,3.54,3.54,0,0,0-1.66-.4,3.6,3.6,0,0,0-1.64.39,4.32,4.32,0,0,0-1.36,1.06,5.07,5.07,0,0,0-.92,1.56,5.41,5.41,0,0,0-.33,1.89"/><path class="cls-2" d="M183.48,286.39a4.42,4.42,0,0,1-1.69,2.51,4.68,4.68,0,0,1-2.86,1,5,5,0,0,1-1.12-.15l-1.7-.43a6.53,6.53,0,0,1-.77,2.63,6,6,0,0,1-1.61,1.87,7.17,7.17,0,0,1-2.21,1.11,8.68,8.68,0,0,1-2.57.38,8,8,0,0,1-2.78-.49,7.28,7.28,0,0,1-2.3-1.37,6.5,6.5,0,0,1-1.57-2.09,6.14,6.14,0,0,1-.57-2.67,6.41,6.41,0,0,1,.91-3.51,6.33,6.33,0,0,1,2.48-2.27,4.79,4.79,0,0,1-1.41-1.7,5.14,5.14,0,0,1-.51-2.3,5,5,0,0,1,.46-2.16,5.24,5.24,0,0,1,1.25-1.7,5.64,5.64,0,0,1,1.82-1.11,6.34,6.34,0,0,1,2.16-.38,6.71,6.71,0,0,1,2.17.34,5.48,5.48,0,0,1,1.8,1,4.5,4.5,0,0,1,1.22,1.67,5.66,5.66,0,0,1,.45,2.33q0,.63-.6.63h-1.18q-.72,0-.72-.63a2.83,2.83,0,0,0-3.11-3.05,3.58,3.58,0,0,0-1.41.26,3.18,3.18,0,0,0-1,.67,2.82,2.82,0,0,0-.6,1,3.51,3.51,0,0,0-.2,1.17,2.81,2.81,0,0,0,.83,2,3.57,3.57,0,0,0,2.22,1c.44,0,.66.24.66.54a.43.43,0,0,1,0,.05.1.1,0,0,0,0,.07l-.23,1c-.06.39-.26.58-.6.58a4.24,4.24,0,0,0-3.22,1.14,4.54,4.54,0,0,0-1.1,3.29,4,4,0,0,0,.38,1.73,4,4,0,0,0,1,1.33,4.6,4.6,0,0,0,1.51.87,5.46,5.46,0,0,0,1.81.3,5.22,5.22,0,0,0,1.67-.27,4.89,4.89,0,0,0,1.45-.8,3.92,3.92,0,0,0,1.05-1.29,4.78,4.78,0,0,0,.49-1.81l-2.56-.64a.64.64,0,0,1-.55-.66.88.88,0,0,1,0-.26l.23-.94a.81.81,0,0,1,.25-.44.64.64,0,0,1,.44-.17l.1,0h.1l6.76,1.7.29,0H179a2.48,2.48,0,0,0,1.31-.37,1.81,1.81,0,0,0,.82-1l0-.09a.63.63,0,0,1,.66-.55l.13,0h.13l.89.23a.64.64,0,0,1,.55.63.25.25,0,0,1,0,.1.34.34,0,0,0,0,.1"/><path class="cls-2" d="M210.23,279.17a5.73,5.73,0,0,1-2,4.35,5.67,5.67,0,0,1,2.23,2.17,5.89,5.89,0,0,1,.85,3.09,6.37,6.37,0,0,1-.44,2.35,6.18,6.18,0,0,1-1.24,1.95,6.08,6.08,0,0,1-1.88,1.36,5.68,5.68,0,0,1-2.36.5H196a.67.67,0,0,1-.47-.16.56.56,0,0,1-.19-.47v-20q0-.69.66-.69h8.49a6.14,6.14,0,0,1,2.27.42,5.56,5.56,0,0,1,1.84,1.17,5.31,5.31,0,0,1,1.23,1.77,5.6,5.6,0,0,1,.44,2.22m-2.53,0a3,3,0,0,0-.91-2.28,3.3,3.3,0,0,0-2.37-.85h-6.65v6.62h6.65a3.11,3.11,0,0,0,1.29-.28,3.06,3.06,0,0,0,1-.75,3.39,3.39,0,0,0,.7-1.1,3.85,3.85,0,0,0,.24-1.36m-2.3,5.93h-7.63v7.39h7.63a3,3,0,0,0,1.32-.3,3.84,3.84,0,0,0,1.11-.8,3.89,3.89,0,0,0,.75-1.18,3.83,3.83,0,0,0,.27-1.43,3.61,3.61,0,0,0-.27-1.38,4.35,4.35,0,0,0-.74-1.18,3.4,3.4,0,0,0-1.09-.82,3.1,3.1,0,0,0-1.35-.3"/><path class="cls-2" d="M224.24,294.31,224,293a8.88,8.88,0,0,1-1.59,1.52,3.77,3.77,0,0,1-2.29.69,5.5,5.5,0,0,1-2.3-.47,6.1,6.1,0,0,1-1.87-1.28,5.95,5.95,0,0,1-1.73-4.23v-7.88a.59.59,0,0,1,.15-.4.51.51,0,0,1,.43-.18h1.28a.65.65,0,0,1,.54.18.86.86,0,0,1,.13.54v7.79a3.18,3.18,0,0,0,.3,1.36,3.69,3.69,0,0,0,.81,1.11,4,4,0,0,0,1.16.75,3.52,3.52,0,0,0,1.37.27,3.4,3.4,0,0,0,1.33-.27,4,4,0,0,0,1.14-.74,3.89,3.89,0,0,0,.8-1.1,3.29,3.29,0,0,0,.34-1.35v-7.9c0-.42.22-.64.67-.64h1.19c.45,0,.67.21.67.64V294.3a.56.56,0,0,1-.64.64h-1c-.44,0-.67-.21-.67-.63"/><path class="cls-2" d="M229.94,292.06a.68.68,0,0,1-.05-.33.27.27,0,0,1,.19-.24l1.44-.58a.35.35,0,0,1,.42,0,.73.73,0,0,1,.24.38,2.13,2.13,0,0,0,.49.74,3,3,0,0,0,.7.49,4,4,0,0,0,.78.27,3,3,0,0,0,.68.08,4,4,0,0,0,1-.12,3.35,3.35,0,0,0,.86-.38,2.27,2.27,0,0,0,.64-.59,1.32,1.32,0,0,0,.24-.77,1.43,1.43,0,0,0-.24-.84,2.35,2.35,0,0,0-.65-.6,4.32,4.32,0,0,0-.94-.45l-1.13-.36a6.88,6.88,0,0,1-3-1.55,3.54,3.54,0,0,1-1.15-2.73,4.05,4.05,0,0,1,.33-1.65,3.67,3.67,0,0,1,.93-1.27,4.37,4.37,0,0,1,1.46-.84,5.58,5.58,0,0,1,1.88-.3,4.2,4.2,0,0,1,2.6.75,6.52,6.52,0,0,1,1.74,2,1.17,1.17,0,0,1,.09.24.26.26,0,0,1-.11.25l-1.18.83a.28.28,0,0,1-.41,0c-.11-.13-.24-.28-.37-.45a4.19,4.19,0,0,0-1-1,2.21,2.21,0,0,0-1.35-.42,2.49,2.49,0,0,0-1.68.56,1.66,1.66,0,0,0-.65,1.26,1.33,1.33,0,0,0,.22.76,2,2,0,0,0,.56.56,3.15,3.15,0,0,0,.76.37c.28.1.55.18.82.26a8.8,8.8,0,0,1,3.61,1.71,3.64,3.64,0,0,1,1.31,2.87,3.8,3.8,0,0,1-1.45,3,4.85,4.85,0,0,1-1.62.82,7,7,0,0,1-2,.29,6.42,6.42,0,0,1-1.56-.2,6.13,6.13,0,0,1-1.45-.59,4.23,4.23,0,0,1-1.16-1,3.67,3.67,0,0,1-.72-1.37"/><path class="cls-2" d="M242.8,276.86a1.69,1.69,0,0,1,.53-1.27,1.75,1.75,0,0,1,1.28-.53,1.79,1.79,0,0,1,1.81,1.8,1.68,1.68,0,0,1-.52,1.25,1.72,1.72,0,0,1-1.29.52,1.74,1.74,0,0,1-1.28-.52,1.65,1.65,0,0,1-.53-1.25m3,4.59V294.3a.57.57,0,0,1-.64.64H244a.56.56,0,0,1-.63-.64V281.45a.56.56,0,0,1,.63-.64h1.21a.57.57,0,0,1,.64.64"/><path class="cls-2" d="M252.89,281.48l.09,1.29a5.47,5.47,0,0,1,.89-.79,7.54,7.54,0,0,1,1.21-.71,9.66,9.66,0,0,1,1.39-.52,5.18,5.18,0,0,1,5.32,1.56,5.63,5.63,0,0,1,1.08,1.9,7.21,7.21,0,0,1,.38,2.36v7.65a.69.69,0,0,1-.2.53.71.71,0,0,1-.5.19h-1.19a.64.64,0,0,1-.53-.17,1,1,0,0,1-.11-.52v-7.7a3.7,3.7,0,0,0-.25-1.37,3.36,3.36,0,0,0-.7-1.13,3.53,3.53,0,0,0-2.59-1.05,4.56,4.56,0,0,0-1.47.26,5.06,5.06,0,0,0-1.35.69,4.39,4.39,0,0,0-1,1,1.93,1.93,0,0,0-.39,1.13v8.24a.56.56,0,0,1-.63.64h-1.18c-.44,0-.67-.21-.67-.64V281.48a.62.62,0,0,1,.19-.48.73.73,0,0,1,.45-.16h1.09a.61.61,0,0,1,.66.64"/><path class="cls-2" d="M273.23,295.28a6.2,6.2,0,0,1-2.64-.57,6.9,6.9,0,0,1-2.16-1.57,7.3,7.3,0,0,1-1.46-2.35,8.06,8.06,0,0,1,0-5.75,7.57,7.57,0,0,1,1.46-2.36,6.63,6.63,0,0,1,2.16-1.58,6.2,6.2,0,0,1,2.64-.57,5.86,5.86,0,0,1,2.49.53,6.43,6.43,0,0,1,2,1.45,7.06,7.06,0,0,1,1.4,2.16,6.88,6.88,0,0,1,.52,2.65v.34c0,.58-.19.94-.55,1.09a3.32,3.32,0,0,1-1.32.23H269a4.55,4.55,0,0,0,1.46,2.79,4.07,4.07,0,0,0,2.8,1.07,5.09,5.09,0,0,0,1.74-.32,5.16,5.16,0,0,0,1.57-.89.72.72,0,0,1,.52-.2.36.36,0,0,1,.31.17l.81,1.21a.34.34,0,0,1,.11.26.54.54,0,0,1-.18.35,2.42,2.42,0,0,1-.3.23,12.56,12.56,0,0,1-2.1,1.15,6.27,6.27,0,0,1-2.48.48m-4.14-8.43h8.14a5.41,5.41,0,0,0-.52-1.51,4.76,4.76,0,0,0-.92-1.24,4.19,4.19,0,0,0-1.22-.83,3.44,3.44,0,0,0-2.81,0,4.05,4.05,0,0,0-1.19.83,5.59,5.59,0,0,0-1.48,2.75"/><path class="cls-2" d="M281.6,292.06a.68.68,0,0,1,0-.33.26.26,0,0,1,.19-.24l1.44-.58a.33.33,0,0,1,.41,0,.69.69,0,0,1,.25.38,1.88,1.88,0,0,0,.49.74,2.85,2.85,0,0,0,.7.49,4,4,0,0,0,.78.27,3,3,0,0,0,.67.08,4,4,0,0,0,1-.12,3.51,3.51,0,0,0,.86-.38,2.1,2.1,0,0,0,.63-.59,1.27,1.27,0,0,0,.25-.77,1.37,1.37,0,0,0-.25-.84,2.31,2.31,0,0,0-.64-.6,4.32,4.32,0,0,0-.94-.45l-1.14-.36a6.84,6.84,0,0,1-3-1.55,3.55,3.55,0,0,1-1.16-2.73,4.05,4.05,0,0,1,.33-1.65,3.69,3.69,0,0,1,.94-1.27,4.32,4.32,0,0,1,1.45-.84,5.68,5.68,0,0,1,1.89-.3,4.2,4.2,0,0,1,2.6.75,6.8,6.8,0,0,1,1.74,2,1.17,1.17,0,0,1,.09.24.25.25,0,0,1-.12.25l-1.18.83a.27.27,0,0,1-.4,0c-.12-.13-.24-.28-.37-.45a4.38,4.38,0,0,0-1-1,2.26,2.26,0,0,0-1.35-.42,2.51,2.51,0,0,0-1.69.56,1.64,1.64,0,0,0-.64,1.26,1.4,1.4,0,0,0,.21.76,2.13,2.13,0,0,0,.56.56,3.35,3.35,0,0,0,.76.37c.28.1.56.18.82.26a8.74,8.74,0,0,1,3.61,1.71,3.61,3.61,0,0,1,1.31,2.87,3.91,3.91,0,0,1-.38,1.72,3.79,3.79,0,0,1-1.07,1.31,4.8,4.8,0,0,1-1.61.82,7,7,0,0,1-2.06.29,6.4,6.4,0,0,1-1.55-.2,6,6,0,0,1-1.45-.59,4.43,4.43,0,0,1-1.17-1,4,4,0,0,1-.72-1.37"/><path class="cls-2" d="M293.83,292.06a.68.68,0,0,1,0-.33.25.25,0,0,1,.18-.24l1.44-.58a.35.35,0,0,1,.42,0,.73.73,0,0,1,.24.38,2.13,2.13,0,0,0,.49.74,2.9,2.9,0,0,0,.71.49,3.93,3.93,0,0,0,.77.27,3,3,0,0,0,.68.08,3.83,3.83,0,0,0,1-.12,3.42,3.42,0,0,0,.87-.38,2.1,2.1,0,0,0,.63-.59,1.32,1.32,0,0,0,.24-.77,1.43,1.43,0,0,0-.24-.84,2.22,2.22,0,0,0-.65-.6,4.46,4.46,0,0,0-.93-.45l-1.14-.36a6.88,6.88,0,0,1-3-1.55,3.54,3.54,0,0,1-1.15-2.73,4.05,4.05,0,0,1,.33-1.65,3.57,3.57,0,0,1,.94-1.27,4.22,4.22,0,0,1,1.45-.84,5.58,5.58,0,0,1,1.88-.3,4.21,4.21,0,0,1,2.61.75,6.8,6.8,0,0,1,1.74,2,1.13,1.13,0,0,1,.08.24.26.26,0,0,1-.11.25l-1.18.83a.27.27,0,0,1-.4,0c-.12-.13-.24-.28-.38-.45a4.19,4.19,0,0,0-1-1,2.21,2.21,0,0,0-1.35-.42,2.49,2.49,0,0,0-1.68.56,1.66,1.66,0,0,0-.65,1.26,1.33,1.33,0,0,0,.22.76,2,2,0,0,0,.56.56,3.15,3.15,0,0,0,.76.37c.28.1.55.18.82.26a8.8,8.8,0,0,1,3.61,1.71,3.64,3.64,0,0,1,1.31,2.87,3.8,3.8,0,0,1-1.45,3,4.8,4.8,0,0,1-1.61.82,7.07,7.07,0,0,1-2.06.29,6.28,6.28,0,0,1-1.55-.2,6,6,0,0,1-1.46-.59,4.23,4.23,0,0,1-1.16-1,3.67,3.67,0,0,1-.72-1.37"/></g></g></svg>